# xmcd
#
# Track frame offsets:
#	183
#	12850
#	26610
#	39738
#	54275
#	67808
#	81655
#	95165
#	107300
#	120445
#	132893
#	143830
#	156408
#	167638
#	184265
#	202555
#	214813
#	227048
#	238533
#	248713
#	258643
#	276013
#
# Disc length: 3810 seconds
# Revision: 7
# Processed by: cddbd v1.5.2PL0 Copyright (c) Steve Scherf et al.
# Submitted via: dBpowerAMP V12.0
#
DISCID=2b0ee016
DTITLE=John Lee Hooker - My Story Is Blues Disc 2
DYEAR=1989
DGENRE=Pop Rock
TTITLE0=Mambo Chillun
TTITLE1=Time Is Marching
TTITLE2=Unfriendly Woman
TTITLE3=I'm So Worried Baby
TTITLE4=Baby Lee
TTITLE5=The Road Is So Rough
TTITLE6=Trouble Blues
TTITLE7=Everybody Rockin'
TTITLE8=I'm So Excited
TTITLE9=Crawlin' Black Spider
TTITLE10=Little Fine Woman
TTITLE11=Rosie Mae
TTITLE12=You've Taken My Woman
TTITLE13=Mama, You've Got A Daughter
TTITLE14=House Rent Boogie
TTITLE15=I'm A Stranger
TTITLE16=I'm Mad Again
TTITLE17=Hard Hearted Woman
TTITLE18=I Wanna Walk
TTITLE19=Run On
TTITLE20=Blues Before Sunrise
TTITLE21=Onions
EXTD=
EXTT0=
EXTT1=
EXTT2=
EXTT3=
EXTT4=
EXTT5=
EXTT6=
EXTT7=
EXTT8=
EXTT9=
EXTT10=
EXTT11=
EXTT12=
EXTT13=
EXTT14=
EXTT15=
EXTT16=
EXTT17=
EXTT18=
EXTT19=
EXTT20=
EXTT21=
PLAYORDER=
